<svg width="94" height="33" viewBox="0 0 94 33" fill="none" xmlns="http://www.w3.org/2000/svg">
<g filter="url(#filter0_d)">
<path d="M9.15095 32.4016H19.1866L27.204 0H19.933L17.4449 11.1691L15.0949 22.8912L12.6068 11.1691L10.2015 0H0L9.15095 32.4016Z" fill="#41B883"/>
<path d="M41.0698 28.7246L41.9268 32.4016H49.5849V8.90214H39.0516V12.0815L40.5445 13.0767V26.0706C40.4892 26.1074 40.4063 26.1719 40.2957 26.2641C40.2035 26.3378 40.1298 26.3931 40.0745 26.43C40.0377 26.4668 39.9731 26.5221 39.881 26.5958C39.7888 26.6511 39.7151 26.6972 39.6598 26.7341C39.6045 26.7709 39.5308 26.817 39.4386 26.8723C39.3465 26.9092 39.2636 26.9368 39.1898 26.9552C39.1345 26.9737 39.0608 27.0013 38.9687 27.0382C38.8765 27.0566 38.7844 27.075 38.6922 27.0935C38.6 27.0935 38.4987 27.0935 38.3881 27.0935C37.614 27.0935 37.0795 26.8999 36.7846 26.5129C36.4897 26.1074 36.3515 25.49 36.3699 24.6606V8.90214H26.3343V12.0815L27.3019 13.0767V22.9189C27.3019 26.5313 27.8548 29.1117 28.9607 30.6599C30.085 32.208 31.9465 32.9821 34.5452 32.9821C35.3746 32.9821 36.1948 32.7978 37.0058 32.4292C37.8167 32.079 38.4987 31.6551 39.0516 31.1575C39.6045 30.6414 40.0469 30.1714 40.3786 29.7475C40.7288 29.3236 40.9592 28.9826 41.0698 28.7246Z" fill="#41B883"/>
<path d="M59.8574 32.9821C61.1108 32.9821 62.2443 32.8439 63.258 32.5675C64.2901 32.291 65.0273 32.0237 65.4697 31.7657C65.912 31.4892 66.2714 31.2128 66.5479 30.9363V27.1764C66.3451 27.3423 66.0871 27.4713 65.7738 27.5635C65.4604 27.6556 65.1103 27.7017 64.7232 27.7017C63.8385 27.7017 63.1842 27.4621 62.7603 26.9829C62.3364 26.5037 62.1245 25.5268 62.1245 24.0524V13.7679H66.7414V8.90214H62.2074V2.46053H57.3416L54.5217 8.90214L51.2594 9.92506V13.7679H53.167V23.1677C53.167 26.7248 53.6554 29.2499 54.6323 30.7428C55.6276 32.2357 57.3693 32.9821 59.8574 32.9821Z" fill="#41B883"/>
<path d="M81.5955 18.1084H77.3932V15.7861C77.3932 15.1226 77.4117 14.5789 77.4485 14.155C77.5038 13.7126 77.6144 13.2887 77.7803 12.8832C77.9462 12.4593 78.2042 12.1552 78.5544 11.9709C78.9046 11.7681 79.3561 11.6668 79.9091 11.6668C80.5542 11.6668 80.9965 12.1552 81.2361 13.132C81.4757 14.1089 81.5955 15.7677 81.5955 18.1084ZM79.3838 32.9821C80.4896 32.9821 81.6508 32.8531 82.8672 32.5951C84.0837 32.3371 85.3462 31.8394 86.6548 31.1022C87.9818 30.3465 88.9863 29.4158 89.6682 28.3099L88.0371 25.5176C87.521 25.9968 86.876 26.4115 86.1019 26.7617C85.3462 27.1119 84.5905 27.3699 83.8349 27.5358C83.0976 27.7017 82.4065 27.7846 81.7614 27.7846C81.0979 27.7846 80.5357 27.7293 80.0749 27.6187C79.6142 27.5082 79.1626 27.287 78.7203 26.9552C78.2779 26.6235 77.937 26.1074 77.6974 25.407C77.4762 24.7067 77.3656 23.8128 77.3656 22.7253V22.2001H90V19.1313C90 15.353 89.2167 12.616 87.6501 10.9203C86.0834 9.20625 83.4847 8.34921 79.8538 8.34921C76.0754 8.34921 73.1357 9.40899 71.0346 11.5285C68.9335 13.6481 67.8829 16.7721 67.8829 20.9007C67.8829 22.6332 68.0856 24.209 68.4911 25.6282C68.8966 27.029 69.5325 28.2915 70.3987 29.4158C71.2834 30.5401 72.4814 31.4155 73.9927 32.0422C75.5225 32.6688 77.3195 32.9821 79.3838 32.9821Z" fill="#41B883"/>
</g>
<defs>
<filter id="filter0_d" x="0" y="0" width="93" height="32.9821" filterUnits="userSpaceOnUse" color-interpolation-filters="sRGB">
<feFlood flood-opacity="0" result="BackgroundImageFix"/>
<feColorMatrix in="SourceAlpha" type="matrix" values="0 0 0 0 0 0 0 0 0 0 0 0 0 0 0 0 0 0 127 0"/>
<feOffset dx="3"/>
<feColorMatrix type="matrix" values="0 0 0 0 0.207843 0 0 0 0 0.286275 0 0 0 0 0.368627 0 0 0 1 0"/>
<feBlend mode="normal" in2="BackgroundImageFix" result="effect1_dropShadow"/>
<feBlend mode="normal" in="SourceGraphic" in2="effect1_dropShadow" result="shape"/>
</filter>
</defs>
</svg>
